<?xml version="1.0" encoding="UTF-8"?>
<svg width="6212px" height="6212px" viewBox="0 0 6212 6212" version="1.1" xmlns="http://www.w3.org/2000/svg" xmlns:xlink="http://www.w3.org/1999/xlink">
    <!-- Generator: Sketch 48.2 (47327) - http://www.bohemiancoding.com/sketch -->
    <title>light2</title>
    <desc>Created with Sketch.</desc>
    <defs></defs>
    <g id="Page-1" stroke-width="1">
        <g id="light2" transform="translate(56.000000, 56.000000)" stroke-width="111.11">
            <path d="M597,2851 L199,2851 C89,2851 0,2940 0,3050 C0,3160 89,3249 199,3249 L597,3249 C707,3249 796,3160 796,3050 C796,2940 707,2851 597,2851 Z" id="Shape"></path>
            <path d="M5901,2851 L5503,2851 C5393,2851 5304,2940 5304,3050 C5304,3160 5393,3249 5503,3249 L5901,3249 C6011,3249 6100,3160 6100,3050 C6100,2940 6011,2851 5901,2851 Z" id="Shape"></path>
            <path d="M3050,5304 C2940,5304 2851,5393 2851,5503 L2851,5901 C2851,6011 2940,6100 3050,6100 C3160,6100 3249,6011 3249,5901 L3249,5503 C3249,5393 3160,5304 3050,5304 Z" id="Shape"></path>
            <path d="M3050,0 C2940,0 2851,89 2851,199 L2851,597 C2851,707 2940,796 3050,796 C3160,796 3249,707 3249,597 L3249,199 C3249,89 3160,0 3050,0 Z" id="Shape"></path>
            <path d="M4648,5420 L4449,5075 C4394,4980 4272,4947 4177,5002 C4082,5057 4050,5179 4104,5274 L4303,5618 C4358,5714 4480,5746 4575,5691 C4670,5636 4703,5515 4648,5420 Z" id="Shape"></path>
            <path d="M1996,826 L1797,481 C1742,386 1620,354 1525,409 C1430,463 1397,585 1452,680 L1651,1025 C1706,1120 1828,1153 1923,1098 C2018,1043 2051,921 1996,826 Z" id="Shape"></path>
            <path d="M5619,4303 L5274,4104 C5179,4049 5057,4082 5002,4177 C4947,4272 4980,4394 5075,4449 L5420,4648 C5515,4703 5636,4670 5691,4575 C5746,4480 5714,4358 5619,4303 Z" id="Shape"></path>
            <path d="M1025,1651 L680,1452 C585,1397 464,1430 409,1525 C354,1620 386,1742 482,1797 L826,1996 C921,2050 1043,2018 1098,1923 C1153,1828 1120,1706 1025,1651 Z" id="Shape"></path>
            <path d="M5691,1525 C5637,1430 5515,1397 5420,1452 L5075,1651 C4980,1706 4947,1828 5002,1923 C5057,2018 5179,2050 5274,1996 L5619,1797 C5714,1742 5746,1620 5691,1525 Z" id="Shape"></path>
            <path d="M1098,4177 C1043,4082 921,4049 826,4104 L482,4303 C386,4358 354,4480 409,4575 C464,4670 585,4703 680,4648 L1025,4449 C1120,4394 1153,4272 1098,4177 Z" id="Shape"></path>
            <path d="M4575,409 C4480,354 4358,386 4303,481 L4104,826 C4050,921 4082,1043 4177,1098 C4272,1153 4394,1120 4449,1025 L4648,680 C4703,585 4670,464 4575,409 Z" id="Shape"></path>
            <path d="M1923,5002 C1828,4947 1706,4980 1651,5075 L1452,5420 C1397,5515 1430,5636 1525,5691 C1620,5746 1742,5714 1797,5619 L1996,5274 C2051,5179 2018,5057 1923,5002 Z" id="Shape"></path>
            <path d="M3050,1193 C2026,1193 1194,2026 1194,3050 C1194,4074 2026,4906 3050,4906 C4074,4906 4907,4074 4907,3050 C4907,2026 4074,1193 3050,1193 Z M3050,4509 C2246,4509 1591,3854 1591,3050 C1591,2246 2246,1591 3050,1591 C3854,1591 4509,2246 4509,3050 C4509,3854 3854,4509 3050,4509 Z" id="Shape"></path>
            <path d="M3050,1989 C2465,1989 1989,2465 1989,3050 C1989,3160 2078,3249 2188,3249 C2298,3249 2387,3160 2387,3050 C2387,2684 2684,2387 3050,2387 C3160,2387 3249,2298 3249,2188 C3249,2078 3160,1989 3050,1989 Z" id="Shape"></path>
        </g>
    </g>
</svg>
