<?xml version="1.0" encoding="UTF-8"?>
<svg width="4724px" height="4614px" viewBox="0 0 4724 4614" version="1.1" xmlns="http://www.w3.org/2000/svg" xmlns:xlink="http://www.w3.org/1999/xlink">
    <!-- Generator: Sketch 48.2 (47327) - http://www.bohemiancoding.com/sketch -->
    <title>humidity</title>
    <desc>Created with Sketch.</desc>
    <defs></defs>
    <g id="Page-1" stroke-width="1">
        <g id="humidity" transform="translate(-1.000000, 0.000000)">
            <g id="_2986685862352">
                <path d="M4725,1824 C4725,1238 3875,260 3704,70 C3620,-19 3480,-24 3391,60 C3388,63 3385,66 3382,70 C3084,405 2818,768 2587,1153 C2448,982 2340,861 2305,821 C2221,732 2081,728 1992,812 C1989,815 1986,818 1983,821 C1690,1153 1418,1503 1169,1869 C1070,1703 975,1561 923,1487 C856,1389 722,1365 624,1433 C603,1447 585,1466 570,1487 C441,1682 1,2346 1,2683 C-1,3072 294,3398 680,3435 C860,4245 1662,4757 2473,4578 C3160,4426 3650,3817 3651,3113 C3651,3077 3648,3041 3643,3005 C4256,2954 4727,2440 4725,1824 Z M752,3005 C574,3005 430,2861 430,2683 C430,2576 577,2289 752,2003 C927,2289 1074,2576 1074,2683 C1074,2861 930,3005 752,3005 Z M2148,4186 C1647,4184 1213,3836 1101,3348 C1349,3218 1504,2962 1504,2683 C1496,2562 1465,2444 1414,2334 C1422,2287 1441,2242 1470,2203 C1678,1887 1904,1583 2148,1294 C2619,1850 3222,2704 3222,3113 C3222,3706 2741,4186 2148,4186 Z M3544,2576 L3518,2576 C3346,2204 3133,1852 2883,1527 C2887,1513 2892,1501 2900,1489 C3081,1152 3297,836 3544,544 C3896,974 4296,1556 4296,1824 C4296,2239 3959,2576 3544,2576 Z" id="Shape"></path>
            </g>
            <g id="_2986685860464" transform="translate(3838.000000, 1400.000000)">
                <path d="M261,177 C260,173 258,169 256,165 C239,128 219,89 199,51 C167,4.05231404e-13 101,-14 51,17 C5,46 -12,105 11,154 C29,187 46,221 60,253 C81,309 143,337 199,316 C254,295 282,233 261,177 Z" id="Shape"></path>
            </g>
            <g id="_2986685859536" transform="translate(3458.000000, 853.000000)">
                <path d="M442,374 C352,243 258,123 195,45 C159,-3 92,-14 44,21 C-3,57 -14,124 21,172 C23,174 26,177 28,180 C89,255 180,370 263,494 C296,544 363,557 413,523 C462,490 475,423 442,374 Z" id="Shape"></path>
            </g>
            <g id="_2986685859312" transform="translate(2041.000000, 3725.000000)">
                <path d="M426,78 C409,21 349,-12 292,5 C232,23 170,32 107,32 C48,32 0,80 0,139 C0,199 48,247 107,247 C191,247 273,235 353,211 C410,194 443,134 426,78 Z" id="Shape"></path>
            </g>
            <g id="_2986685859376" transform="translate(2582.000000, 2790.000000)">
                <path d="M394,78 C377,21 317,-12 260,5 C203,22 171,82 188,139 C255,363 195,606 31,774 C-10,816 -10,884 32,925 C51,944 77,955 103,956 C132,956 159,944 179,924 C400,702 482,378 394,78 Z" id="Shape"></path>
            </g>
        </g>
    </g>
</svg>
