<?xml version="1.0" encoding="UTF-8"?>
<!DOCTYPE svg PUBLIC "-//W3C//DTD SVG 1.1//EN" "http://www.w3.org/Graphics/SVG/1.1/DTD/svg11.dtd">
<!-- Creator: CorelDRAW X8 -->
<svg xmlns="http://www.w3.org/2000/svg" xml:space="preserve" width="8.5in" height="11in" version="1.1" style="shape-rendering:geometricPrecision; text-rendering:geometricPrecision; image-rendering:optimizeQuality; fill-rule:evenodd; clip-rule:evenodd"
viewBox="0 0 8500 11000"
 xmlns:xlink="http://www.w3.org/1999/xlink">
 <defs>
  <style type="text/css">
   <![CDATA[
    .fil0 {fill:black}
   ]]>
  </style>
 </defs>
 <g id="Layer_x0020_1">
  <metadata id="CorelCorpID_0Corel-Layer"/>
  <g id="_2986685862352">
   <g>
    <path class="fil0" d="M6612 5017c0,-586 -850,-1564 -1021,-1754 -84,-89 -224,-94 -313,-10 -3,3 -6,6 -9,10 -298,335 -564,698 -795,1083 -139,-171 -247,-292 -282,-332 -84,-89 -224,-93 -313,-9 -3,3 -6,6 -9,9 -293,332 -565,682 -814,1048 -99,-166 -194,-308 -246,-382 -67,-98 -201,-122 -299,-54 -21,14 -39,33 -54,54 -129,195 -569,859 -569,1196 -2,389 293,715 679,752 180,810 982,1322 1793,1143 687,-152 1177,-761 1178,-1465 0,-36 -3,-72 -8,-108 613,-51 1084,-565 1082,-1181zm-3973 1181c-178,0 -322,-144 -322,-322 0,-107 147,-394 322,-680 175,286 322,573 322,680 0,178 -144,322 -322,322zm1396 1181c-501,-2 -935,-350 -1047,-838 248,-130 403,-386 403,-665 -8,-121 -39,-239 -90,-349 8,-47 27,-92 56,-131 208,-316 434,-620 678,-909 471,556 1074,1410 1074,1819 0,593 -481,1073 -1074,1073zm1396 -1610l-26 0c-172,-372 -385,-724 -635,-1049 4,-14 9,-26 17,-38 181,-337 397,-653 644,-945 352,430 752,1012 752,1280 0,415 -337,752 -752,752z"/>
   </g>
  </g>
  <g id="_2986685860464">
   <g>
    <path class="fil0" d="M5986 4770c-1,-4 -3,-8 -5,-12 -17,-37 -37,-76 -57,-114 -32,-51 -98,-65 -148,-34 -46,29 -63,88 -40,137 18,33 35,67 49,99 21,56 83,84 139,63 55,-21 83,-83 62,-139z"/>
   </g>
  </g>
  <g id="_2986685859536">
   <g>
    <path class="fil0" d="M5787 4420c-90,-131 -184,-251 -247,-329 -36,-48 -103,-59 -151,-24 -47,36 -58,103 -23,151 2,2 5,5 7,8 61,75 152,190 235,314 33,50 100,63 150,29 49,-33 62,-100 29,-149z"/>
   </g>
  </g>
  <g id="_2986685859312">
   <g>
    <path class="fil0" d="M4354 6996c-17,-57 -77,-90 -134,-73 -60,18 -122,27 -185,27 -59,0 -107,48 -107,107 0,60 48,108 107,108 84,0 166,-12 246,-36 57,-17 90,-77 73,-133z"/>
   </g>
  </g>
  <g id="_2986685859376">
   <g>
    <path class="fil0" d="M4863 6061c-17,-57 -77,-90 -134,-73 -57,17 -89,77 -72,134 67,224 7,467 -157,635 -41,42 -41,110 1,151 19,19 45,30 71,31 29,0 56,-12 76,-32 221,-222 303,-546 215,-846z"/>
   </g>
  </g>
  <g id="_2986685859728">
  </g>
  <g id="_2986685857520">
  </g>
  <g id="_2986685857200">
  </g>
  <g id="_2986685858544">
  </g>
  <g id="_2986685859120">
  </g>
  <g id="_2986685859024">
  </g>
  <g id="_2986685858480">
  </g>
  <g id="_2986685855920">
  </g>
  <g id="_2986685855568">
  </g>
  <g id="_2986685855312">
  </g>
  <g id="_2986685855536">
  </g>
  <g id="_2986685856976">
  </g>
  <g id="_2986685856720">
  </g>
  <g id="_2986685854384">
  </g>
  <g id="_2986685853968">
  </g>
 </g>
</svg>
