<?xml version="1.0" encoding="UTF-8"?>
<!DOCTYPE svg PUBLIC "-//W3C//DTD SVG 1.1//EN" "http://www.w3.org/Graphics/SVG/1.1/DTD/svg11.dtd">
<!-- Creator: CorelDRAW X8 -->
<svg xmlns="http://www.w3.org/2000/svg" xml:space="preserve" width="8.5in" height="11in" version="1.1" style="shape-rendering:geometricPrecision; text-rendering:geometricPrecision; image-rendering:optimizeQuality; fill-rule:evenodd; clip-rule:evenodd"
viewBox="0 0 8500 11000"
 xmlns:xlink="http://www.w3.org/1999/xlink">
 <defs>
  <style type="text/css">
   <![CDATA[
    .str0 {stroke:black;stroke-width:111.11}
    .fil0 {fill:black}
   ]]>
  </style>
 </defs>
 <g id="Layer_x0020_1">
  <metadata id="CorelCorpID_0Corel-Layer"/>
  <g id="_2986646960576">
   <g>
    <g>
     <path class="fil0 str0" d="M1890 5304l-398 0c-110,0 -199,89 -199,199 0,110 89,199 199,199l398 0c110,0 199,-89 199,-199 0,-110 -89,-199 -199,-199z"/>
    </g>
   </g>
   <g>
    <g>
     <path class="fil0 str0" d="M7194 5304l-398 0c-110,0 -199,89 -199,199 0,110 89,199 199,199l398 0c110,0 199,-89 199,-199 0,-110 -89,-199 -199,-199z"/>
    </g>
   </g>
   <g>
    <g>
     <path class="fil0 str0" d="M4343 7757c-110,0 -199,89 -199,199l0 398c0,110 89,199 199,199 110,0 199,-89 199,-199l0 -398c0,-110 -89,-199 -199,-199z"/>
    </g>
   </g>
   <g>
    <g>
     <path class="fil0 str0" d="M4343 2453c-110,0 -199,89 -199,199l0 398c0,110 89,199 199,199 110,0 199,-89 199,-199l0 -398c0,-110 -89,-199 -199,-199z"/>
    </g>
   </g>
   <g>
    <g>
     <path class="fil0 str0" d="M5941 7873l-199 -345c-55,-95 -177,-128 -272,-73 -95,55 -127,177 -73,272l199 344c55,96 177,128 272,73 95,-55 128,-176 73,-271z"/>
    </g>
   </g>
   <g>
    <g>
     <path class="fil0 str0" d="M3289 3279l-199 -345c-55,-95 -177,-127 -272,-72 -95,54 -128,176 -73,271l199 345c55,95 177,128 272,73 95,-55 128,-177 73,-272z"/>
    </g>
   </g>
   <g>
    <g>
     <path class="fil0 str0" d="M6912 6756l-345 -199c-95,-55 -217,-22 -272,73 -55,95 -22,217 73,272l345 199c95,55 216,22 271,-73 55,-95 23,-217 -72,-272z"/>
    </g>
   </g>
   <g>
    <g>
     <path class="fil0 str0" d="M2318 4104l-345 -199c-95,-55 -216,-22 -271,73 -55,95 -23,217 73,272l344 199c95,54 217,22 272,-73 55,-95 22,-217 -73,-272z"/>
    </g>
   </g>
   <g>
    <g>
     <path class="fil0 str0" d="M6984 3978c-54,-95 -176,-128 -271,-73l-345 199c-95,55 -128,177 -73,272 55,95 177,127 272,73l345 -199c95,-55 127,-177 72,-272z"/>
    </g>
   </g>
   <g>
    <g>
     <path class="fil0 str0" d="M2391 6630c-55,-95 -177,-128 -272,-73l-344 199c-96,55 -128,177 -73,272 55,95 176,128 271,73l345 -199c95,-55 128,-177 73,-272z"/>
    </g>
   </g>
   <g>
    <g>
     <path class="fil0 str0" d="M5868 2862c-95,-55 -217,-23 -272,72l-199 345c-54,95 -22,217 73,272 95,55 217,22 272,-73l199 -345c55,-95 22,-216 -73,-271z"/>
    </g>
   </g>
   <g>
    <g>
     <path class="fil0 str0" d="M3216 7455c-95,-55 -217,-22 -272,73l-199 345c-55,95 -22,216 73,271 95,55 217,23 272,-72l199 -345c55,-95 22,-217 -73,-272z"/>
    </g>
   </g>
   <g>
    <g>
     <path class="fil0 str0" d="M4343 3646c-1024,0 -1856,833 -1856,1857 0,1024 832,1856 1856,1856 1024,0 1857,-832 1857,-1856 0,-1024 -833,-1857 -1857,-1857zm0 3316c-804,0 -1459,-655 -1459,-1459 0,-804 655,-1459 1459,-1459 804,0 1459,655 1459,1459 0,804 -655,1459 -1459,1459z"/>
    </g>
   </g>
   <g>
    <g>
     <path class="fil0 str0" d="M4343 4442c-585,0 -1061,476 -1061,1061 0,110 89,199 199,199 110,0 199,-89 199,-199 0,-366 297,-663 663,-663 110,0 199,-89 199,-199 0,-110 -89,-199 -199,-199z"/>
    </g>
   </g>
   <g>
   </g>
   <g>
   </g>
   <g>
   </g>
   <g>
   </g>
   <g>
   </g>
   <g>
   </g>
   <g>
   </g>
   <g>
   </g>
   <g>
   </g>
   <g>
   </g>
   <g>
   </g>
   <g>
   </g>
   <g>
   </g>
   <g>
   </g>
   <g>
   </g>
  </g>
 </g>
</svg>
