<?xml version="1.0" encoding="UTF-8"?>
<svg width="5664px" height="5167px" viewBox="0 0 5664 5167" version="1.1" xmlns="http://www.w3.org/2000/svg" xmlns:xlink="http://www.w3.org/1999/xlink">
    <!-- Generator: Sketch 48.2 (47327) - http://www.bohemiancoding.com/sketch -->
    <title>pressure</title>
    <desc>Created with Sketch.</desc>
    <defs></defs>
    <g id="Page-1" stroke="none" stroke-width="1" fill="none" fill-rule="evenodd">
        <g id="pressure" transform="translate(100.000000, 100.000000)" fill="#000000" stroke="#FFFFFF" stroke-width="200">
            <path d="M2645,3591 C2594,3137 2191,2781 1702,2781 C1315,2781 972,3003 827,3340 C825,3340 824,3340 822,3340 C369,3340 0,3705 0,4154 C0,4602 369,4967 822,4967 C830,4967 838,4967 846,4967 C848,4967 851,4967 854,4967 L2613,4967 C2620,4967 2626,4966 2632,4965 C2995,4940 3279,4640 3279,4278 C3278,3919 2999,3623 2645,3591 Z M2608,4768 C2606,4768 2603,4768 2601,4768 L866,4768 C860,4768 855,4767 849,4768 C495,4781 199,4501 199,4154 C199,3815 479,3539 822,3539 C843,3539 864,3540 884,3542 C929,3547 973,3518 988,3474 C1087,3179 1374,2980 1702,2980 C2115,2980 2451,3298 2451,3689 C2451,3716 2462,3742 2482,3761 C2502,3779 2528,3790 2555,3788 C2564,3788 2573,3787 2582,3787 C2857,3787 3080,4007 3080,4278 C3080,4539 2873,4754 2608,4768 Z" id="Shape"></path>
            <path d="M2832,2184 C2838,2185 2844,2185 2851,2185 L4610,2185 C4613,2185 4616,2185 4618,2185 C4626,2185 4634,2185 4642,2185 C5095,2185 5464,1821 5464,1372 C5464,924 5095,559 4642,559 C4640,559 4639,559 4638,559 C4492,222 4149,0 3762,0 C3274,0 2871,355 2820,810 C2465,841 2186,1137 2186,1496 C2186,1859 2469,2158 2832,2184 Z M2882,1006 C2891,1006 2900,1006 2909,1006 C2936,1008 2962,997 2982,979 C3002,960 3013,934 3013,906 C3013,516 3349,199 3762,199 C4090,199 4378,397 4477,693 C4491,737 4535,764 4580,760 C4600,758 4621,757 4642,757 C4986,757 5265,1033 5265,1372 C5265,1720 4967,2002 4615,1986 C4613,1986 4612,1986 4610,1986 C4606,1986 4603,1986 4599,1987 L2863,1987 C2861,1986 2858,1986 2856,1986 C2592,1973 2384,1757 2384,1496 C2384,1226 2608,1006 2882,1006 Z" id="Shape"></path>
            <path d="M1760,2160 L784,2290 C730,2297 692,2347 699,2401 C706,2451 748,2488 797,2488 C802,2488 806,2487 811,2487 L1898,2342 C1926,2339 1951,2323 1967,2299 C1983,2276 1988,2246 1981,2218 L1701,1165 C1687,1112 1632,1081 1579,1095 C1526,1109 1495,1163 1509,1216 L1760,2160 Z" id="Shape"></path>
            <path d="M100,2090 C104,2090 108,2090 113,2089 L1200,1945 C1228,1941 1254,1926 1269,1902 C1285,1878 1290,1849 1283,1821 L1003,768 C989,715 934,684 881,698 C828,712 797,766 811,819 L1062,1763 L87,1893 C32,1900 -6,1950 1,2004 C8,2054 50,2090 100,2090 Z" id="Shape"></path>
            <path d="M3508,3009 L4484,2880 C4538,2873 4576,2823 4569,2768 C4562,2714 4512,2676 4458,2683 L3370,2827 C3342,2831 3317,2847 3301,2871 C3285,2894 3280,2924 3287,2951 L3567,4004 C3579,4049 3619,4078 3663,4078 C3672,4078 3680,4077 3689,4075 C3742,4061 3773,4006 3759,3953 L3508,3009 Z" id="Shape"></path>
            <path d="M5153,3279 L4066,3423 C4037,3427 4012,3443 3996,3467 C3980,3490 3975,3520 3983,3547 L4263,4600 C4274,4645 4315,4674 4359,4674 C4367,4674 4376,4673 4384,4671 C4437,4657 4469,4602 4455,4549 L4204,3605 L5179,3476 C5233,3469 5272,3419 5264,3364 C5257,3310 5207,3272 5153,3279 Z" id="Shape"></path>
        </g>
    </g>
</svg>