<?xml version="1.0" encoding="UTF-8"?>
<!DOCTYPE svg PUBLIC "-//W3C//DTD SVG 1.1//EN" "http://www.w3.org/Graphics/SVG/1.1/DTD/svg11.dtd">
<!-- Creator: CorelDRAW X8 -->
<svg xmlns="http://www.w3.org/2000/svg" xml:space="preserve" width="8.5in" height="11in" version="1.1" style="shape-rendering:geometricPrecision; text-rendering:geometricPrecision; image-rendering:optimizeQuality; fill-rule:evenodd; clip-rule:evenodd"
viewBox="0 0 8500 11000"
 xmlns:xlink="http://www.w3.org/1999/xlink">
 <defs>
  <style type="text/css">
   <![CDATA[
    .str0 {stroke:black;stroke-width:138.886}
    .fil0 {fill:black}
   ]]>
  </style>
 </defs>
 <g id="Layer_x0020_1">
  <metadata id="CorelCorpID_0Corel-Layer"/>
  <g id="_2986685861040">
   <g>
    <g>
     <g>
      <path class="fil0 str0" d="M4165 6432c-51,-454 -454,-810 -943,-810 -387,0 -730,222 -875,559 -2,0 -3,0 -5,0 -453,0 -822,365 -822,814 0,448 369,813 822,813 8,0 16,0 24,0 2,0 5,0 8,0l1759 0c7,0 13,-1 19,-2 363,-25 647,-325 647,-687 -1,-359 -280,-655 -634,-687zm-37 1177c-2,0 -5,0 -7,0l-1735 0c-6,0 -11,-1 -17,0 -354,13 -650,-267 -650,-614 0,-339 280,-615 623,-615 21,0 42,1 62,3 45,5 89,-24 104,-68 99,-295 386,-494 714,-494 413,0 749,318 749,709 0,27 11,53 31,72 20,18 46,29 73,27 9,0 18,-1 27,-1 275,0 498,220 498,491 0,261 -207,476 -472,490z"/>
      <path class="fil0 str0" d="M4352 5025c6,1 12,1 19,1l1759 0c3,0 6,0 8,0 8,0 16,0 24,0 453,0 822,-364 822,-813 0,-448 -369,-813 -822,-813 -2,0 -3,0 -4,0 -146,-337 -489,-559 -876,-559 -488,0 -891,355 -942,810 -355,31 -634,327 -634,686 0,363 283,662 646,688zm50 -1178c9,0 18,0 27,0 27,2 53,-9 73,-27 20,-19 31,-45 31,-73 0,-390 336,-707 749,-707 328,0 616,198 715,494 14,44 58,71 103,67 20,-2 41,-3 62,-3 344,0 623,276 623,615 0,348 -298,630 -650,614 -2,0 -3,0 -5,0 -4,0 -7,0 -11,1l-1736 0c-2,-1 -5,-1 -7,-1 -264,-13 -472,-229 -472,-490 0,-270 224,-490 498,-490z"/>
      <path class="fil0 str0" d="M3280 5001l-976 130c-54,7 -92,57 -85,111 7,50 49,87 98,87 5,0 9,-1 14,-1l1087 -145c28,-3 53,-19 69,-43 16,-23 21,-53 14,-81l-280 -1053c-14,-53 -69,-84 -122,-70 -53,14 -84,68 -70,121l251 944z"/>
      <path class="fil0 str0" d="M1620 4931c4,0 8,0 13,-1l1087 -144c28,-4 54,-19 69,-43 16,-24 21,-53 14,-81l-280 -1053c-14,-53 -69,-84 -122,-70 -53,14 -84,68 -70,121l251 944 -975 130c-55,7 -93,57 -86,111 7,50 49,86 99,86z"/>
      <path class="fil0 str0" d="M5028 5850l976 -129c54,-7 92,-57 85,-112 -7,-54 -57,-92 -111,-85l-1088 144c-28,4 -53,20 -69,44 -16,23 -21,53 -14,80l280 1053c12,45 52,74 96,74 9,0 17,-1 26,-3 53,-14 84,-69 70,-122l-251 -944z"/>
      <path class="fil0 str0" d="M6673 6120l-1087 144c-29,4 -54,20 -70,44 -16,23 -21,53 -13,80l280 1053c11,45 52,74 96,74 8,0 17,-1 25,-3 53,-14 85,-69 71,-122l-251 -944 975 -129c54,-7 93,-57 85,-112 -7,-54 -57,-92 -111,-85z"/>
     </g>
    </g>
   </g>
   <g>
   </g>
   <g>
   </g>
   <g>
   </g>
   <g>
   </g>
   <g>
   </g>
   <g>
   </g>
   <g>
   </g>
   <g>
   </g>
   <g>
   </g>
   <g>
   </g>
   <g>
   </g>
   <g>
   </g>
   <g>
   </g>
   <g>
   </g>
   <g>
   </g>
  </g>
 </g>
</svg>
